<svg width="390" height="617" viewBox="0 0 390 617" fill="none" xmlns="http://www.w3.org/2000/svg">
<g id="undraw_Nature_benefits_re_kk70 1">
<path id="leaf" d="M326 225.961C326 161.341 262.648 8 184.5 8C106.352 8 43 161.341 43 225.961C42.9947 241.329 46.6507 256.548 53.7594 270.747C60.868 284.947 71.29 297.85 84.43 308.718C97.57 319.587 113.171 328.208 130.341 334.09C147.511 339.972 165.915 343 184.5 343C203.085 343 221.489 339.972 238.659 334.09C255.829 328.208 271.43 319.587 284.57 308.718C297.71 297.85 308.132 284.947 315.241 270.747C322.349 256.548 326.005 241.329 326 225.961V225.961Z" fill="#6C63FF"/>
<path id="stick" d="M184.5 582C184.898 582 185.279 581.899 185.561 581.718C185.842 581.537 186 581.292 186 581.037V105.963C186 105.708 185.842 105.463 185.561 105.282C185.279 105.101 184.898 105 184.5 105C184.102 105 183.721 105.101 183.439 105.282C183.158 105.463 183 105.708 183 105.963V581.037C183 581.292 183.158 581.537 183.439 581.718C183.721 581.899 184.102 582 184.5 582Z" fill="#3F3D56"/>
<path id="r_branch" d="M184.157 184C184.309 184 184.459 183.975 184.6 183.927C184.74 183.879 184.868 183.808 184.975 183.719L240.666 137.631C240.881 137.451 241.001 137.208 241 136.955C240.999 136.702 240.877 136.459 240.661 136.28C240.445 136.102 240.152 136.001 239.846 136C239.541 135.999 239.247 136.099 239.03 136.277L183.339 182.365C183.177 182.499 183.067 182.67 183.022 182.856C182.978 183.041 183.001 183.234 183.088 183.409C183.176 183.584 183.324 183.733 183.514 183.839C183.704 183.944 183.928 184 184.157 184V184Z" fill="#3F3D56"/>
<path id="l_branch" d="M184.826 265C185.058 265 185.285 264.943 185.478 264.837C185.671 264.73 185.822 264.579 185.911 264.402C185.999 264.225 186.023 264.031 185.977 263.843C185.932 263.655 185.82 263.482 185.656 263.347L90.9989 185.279C90.7782 185.099 90.4804 184.999 90.1703 185C89.8603 185.001 89.5633 185.103 89.344 185.284C89.1248 185.464 89.0011 185.709 89 185.965C88.9989 186.221 89.1205 186.466 89.3382 186.648L183.995 264.716C184.104 264.806 184.234 264.878 184.376 264.926C184.519 264.975 184.672 265 184.826 265V265Z" fill="#3F3D56"/>
<path id="grass" d="M269.668 608.629C269.467 608.758 269.254 608.874 269.05 609H95.9393C92.5473 597.636 91.3495 586.259 96.4162 576.38C103.635 562.302 125 553.514 141.985 559.56C146.01 561.031 149.515 563.325 152.172 566.225C158.81 556.4 170.717 548.992 184.461 549C201.68 549.01 215.996 560.654 220.668 574.103C228.191 563.603 243.052 556.264 257.576 559.421C281.87 564.701 289.543 595.928 269.668 608.629Z" fill="#F2F2F2"/>
</g>
</svg>
