<svg width="300" height="229" viewBox="0 0 344 229" fill="none" xmlns="http://www.w3.org/2000/svg">
<path id="Path 538" d="M332.821 162.654L332.82 162.656C312.899 199.385 268.675 223.321 219.849 225.786C181.013 227.744 131.921 228.114 99.2978 220.816C79.4618 216.38 58.9717 209.986 41.883 200.702C24.7809 191.411 11.2887 179.338 5.09382 163.635C-5.33063 137.177 11.5267 104.845 42.7227 93.2271C58.2759 87.4346 76.2803 87.2471 92.5667 91.6246C108.865 96.0053 123.236 104.899 131.679 117.032L135.253 115.375C129.535 93.9048 123.969 72.3861 128.009 51.2938C133.456 22.9004 160.577 -5.11046 201.473 3.63074L201.494 3.63521L201.515 3.63923C217.299 6.6618 231.932 15.8155 243.197 29.8381C253.35 43.1662 256.637 56.6417 257.377 70.7829C257.749 77.8863 257.477 85.1421 257.106 92.6588C257.05 93.7944 256.992 94.9362 256.933 96.084C256.866 97.3974 256.798 98.7188 256.733 100.048C254.037 105.353 253.453 111.182 256.506 116.839L260.266 115.889C260.266 110.883 260.454 105.968 260.687 101.105C261.998 98.7499 263.861 96.4286 266.19 94.2103C273.061 87.666 283.439 82.6624 293.18 81.4729C312.339 79.1331 329.182 93.7363 337.114 109.114C344.852 124.116 342.722 141.79 335.452 157.429L337.186 158.235L335.452 157.429C334.632 159.194 333.754 160.936 332.821 162.654Z" fill="white" stroke="#312C51" stroke-width="4"/>
</svg>
