<svg width="942" height="942" viewBox="0 0 342 342" fill="none" xmlns="http://www.w3.org/2000/svg">
<g id="earth">
<path id="Vector" d="M341.981 170.991V172.014C341.958 174.585 341.884 177.144 341.76 179.692C339.543 223.288 320.735 264.385 289.193 294.561C257.65 324.737 215.76 341.706 172.109 341.992C128.458 342.277 86.3498 325.857 54.415 296.097C22.4802 266.336 3.13694 225.488 0.349255 181.925C0.116588 178.307 0.000255626 174.663 0.000255626 170.991C-0.0611174 135.576 10.9302 101.024 31.4416 72.1537C33.0817 69.8273 34.7877 67.5436 36.5596 65.3025C37.7809 63.7438 39.0372 62.22 40.3051 60.7079C69.1698 26.5126 110.287 4.99277 154.836 0.765328C199.385 -3.46211 243.817 9.93963 278.598 38.0953C280.657 39.7586 282.681 41.4801 284.658 43.2366C286.24 44.6441 287.795 46.0826 289.323 47.5521C319.41 76.3311 337.929 115.123 341.388 156.614C341.783 161.36 341.981 166.152 341.981 170.991Z" fill="#2F2E41"/>
<path id="Vector_2" d="M36.5596 65.3024C36.6434 65.3376 36.7218 65.3846 36.7923 65.442C37.7112 66.1981 36.5596 67.6521 36.6992 68.8502C36.862 70.3856 38.9093 70.723 40.4563 70.8742C42.0034 71.037 43.9576 72.2817 43.2248 73.6543C39.3397 74.9919 35.4081 73.6775 31.4416 72.1537C10.9302 101.024 -0.0611059 135.576 0.00025553 170.991C0.00025553 174.667 0.116588 178.311 0.349255 181.925C0.674484 182.162 1.03061 182.354 1.40776 182.495C2.57096 182.937 3.92028 182.855 4.99043 183.484C5.83956 183.984 6.40954 184.868 7.25868 185.333C9.68977 186.659 13.063 184.112 15.3313 185.694C15.9176 186.228 16.473 186.795 16.9947 187.392C19.0884 189.207 22.5315 187.985 24.951 189.346C26.5097 190.219 27.3123 191.963 28.1498 193.545C30.2319 197.5 33.6052 201.385 38.0602 201.699C39.4653 201.635 40.8733 201.681 42.271 201.839C43.6435 202.153 44.9929 203.351 44.7719 204.735C44.388 207.12 45.5629 209.725 45.2488 212.11C44.6788 216.472 38.5022 218.38 37.9788 222.742C37.9771 223.702 37.9227 224.661 37.816 225.615C37.5368 226.755 36.676 227.685 36.3736 228.825C35.792 230.977 37.339 233.129 39.0257 234.571C40.7239 236.025 42.7479 237.282 43.6784 239.306C44.6555 241.457 44.1787 243.958 44.4927 246.296C45.1906 251.403 49.5991 255.183 54.1356 257.626C55.5893 258.233 56.8802 259.174 57.9044 260.371C59.0676 262.058 58.9513 264.279 59.3468 266.292C60.3006 271.212 64.4416 275.272 64.5579 280.285C64.6393 283.856 62.6619 287.09 61.4754 290.451C60.2549 293.976 59.892 297.74 60.4169 301.432C67.0493 307.057 74.0991 312.171 81.5057 316.728C81.9086 316.133 82.2038 315.471 82.3781 314.774C82.5188 314.003 82.4217 313.207 82.0997 312.493C81.7777 311.778 81.246 311.178 80.5751 310.773C81.8252 310.3 82.9625 309.571 83.9135 308.632C84.3807 308.152 84.6893 307.539 84.7975 306.878C84.9056 306.216 84.8082 305.538 84.5183 304.933C86.5656 305.189 88.9967 305.317 90.346 303.747C91.4278 302.491 91.358 300.606 90.9276 299.013C90.337 297.463 89.9461 295.845 89.7644 294.197C94.5075 294.428 99.2617 294.268 103.979 293.72C103.296 291.419 101.744 289.475 99.6516 288.3C101.792 287.939 103.734 285.38 104.409 283.321C104.993 281.22 105.025 279.005 104.502 276.889C104.34 276.345 104.316 275.769 104.432 275.214C104.776 274.476 105.381 273.892 106.131 273.573C109.667 271.538 113.203 269.506 116.739 267.478C117.37 267.16 117.944 266.739 118.437 266.234C119.542 264.919 119.379 262.953 118.809 261.337C118.24 259.72 117.332 258.196 117.111 256.498C116.46 251.414 121.904 247.762 123.741 242.97C124.366 241.056 124.703 239.061 124.742 237.049C124.893 234.885 124.905 232.385 123.253 231C121.659 229.663 119.182 229.965 117.518 228.72C115.995 227.58 115.471 225.382 113.808 224.463C112.296 223.626 110.411 224.161 108.725 223.765C105.77 223.079 103.909 219.671 100.885 219.357C99.1863 219.171 97.2553 220.008 95.8595 219.019C94.6265 218.135 94.58 216.379 94.3474 214.89C93.9344 212.571 92.8213 210.434 91.1577 208.766C89.4941 207.098 87.3598 205.98 85.0418 205.561C83.2854 205.282 81.3777 205.387 79.8772 204.421C78.365 203.444 77.6787 201.618 76.4806 200.257C74.573 198.082 71.5486 197.302 68.7221 196.639C64.8835 195.744 61.0489 194.844 57.2181 193.941C55.1825 193.452 52.5537 193.196 51.4487 194.988C51.1216 195.669 50.8944 196.394 50.774 197.14C50.3585 198.482 49.5299 199.659 48.4062 200.503C47.2825 201.347 45.921 201.814 44.516 201.839C43.5541 200.196 41.9959 198.988 40.1656 198.466C38.9697 198.265 37.7884 197.985 36.6295 197.628C36.0242 197.332 35.4859 196.915 35.0473 196.403C34.6087 195.891 34.2792 195.295 34.0788 194.652C33.8785 194.008 33.8115 193.331 33.8821 192.66C33.9526 191.99 34.1592 191.341 34.4892 190.754C35.1488 189.573 35.4025 188.209 35.2112 186.87C35.02 185.531 34.3944 184.293 33.4307 183.344C31.4765 181.588 28.6499 181.157 26.0211 181.332C25.3348 179.831 26.4864 178.145 27.7194 177.051C28.964 175.969 30.4645 174.899 30.732 173.271C31.1624 170.712 27.8939 168.769 25.4162 169.525C22.9386 170.293 21.3567 172.701 20.3098 175.074C19.8021 176.474 19.1097 177.8 18.251 179.017C17.811 179.619 17.213 180.088 16.5232 180.371C15.8334 180.654 15.0787 180.741 14.3426 180.622C12.2953 180.099 11.516 177.668 11.0624 175.62C10.3354 172.884 9.96786 170.065 9.96894 167.234C9.98673 164.375 11.1223 161.636 13.1329 159.603C16.5178 156.486 21.7289 156.788 26.3003 157.288C25.8106 156.635 25.5759 155.826 25.6402 155.012C25.7044 154.199 26.0632 153.436 26.6493 152.868C27.261 152.325 27.9961 151.939 28.7908 151.745C29.5854 151.55 30.4155 151.552 31.209 151.751C32.5872 152.037 33.8289 152.779 34.7335 153.857C36.0363 155.439 36.4085 157.591 37.3856 159.382C38.3743 161.185 40.5844 162.72 42.3874 161.755C43.9577 160.918 44.202 158.754 43.8181 157.021C43.4226 155.299 42.5967 153.613 42.7363 151.845C43.0038 148.483 46.5051 146.447 49.5876 145.063C52.67 143.679 56.1946 141.806 56.6831 138.456C56.7057 137.805 56.8313 137.161 57.0553 136.548C57.3965 136.002 57.8734 135.553 58.4396 135.246C67.4311 129.302 76.5855 123.276 86.8681 120.031C87.4032 119.857 87.4614 120.043 88.0081 119.915C88.7758 119.473 88.264 118.251 87.5312 117.763C86.7983 117.274 85.8213 116.89 85.6352 116.03C85.5072 115.401 85.8795 114.773 85.9725 114.134C85.9968 113.747 85.9259 113.361 85.7662 113.008C85.6064 112.655 85.3625 112.347 85.0559 112.111C84.7494 111.874 84.3895 111.716 84.0079 111.651C83.6262 111.586 83.2343 111.616 82.8667 111.737C82.0409 110.644 83.6694 109.376 84.9954 109.004C88.9658 107.916 93.0405 107.253 97.1509 107.026C97.6253 106.948 98.1123 107.03 98.5351 107.259C98.8373 107.551 99.0165 107.947 99.036 108.367C99.0555 108.786 98.9137 109.197 98.6397 109.516C98.0801 110.137 97.4606 110.702 96.7903 111.202C96.1229 111.851 95.6463 112.67 95.4125 113.57C95.1786 114.47 95.1966 115.418 95.4642 116.309C97.6161 117.402 99.9425 118.53 102.327 118.147C104.7 117.763 106.805 115.087 105.689 112.959C104.653 110.97 101.524 110.516 100.989 108.341C100.361 105.793 103.967 103.525 103.153 101.036C102.804 99.9426 101.711 99.2912 100.873 98.5118C99.8875 97.5414 99.2172 96.2966 98.9495 94.9396C98.6818 93.5826 98.8292 92.1765 99.3725 90.9045C98.0108 91.1424 96.6119 91.0512 95.2926 90.6384C93.9733 90.2256 92.7718 89.5032 91.7885 88.5316C89.9739 86.7053 88.5315 83.809 85.9492 83.902C83.5879 83.9718 81.5523 86.7286 79.3422 85.8911C78.7955 85.6817 78.2256 85.263 77.7021 85.5072C77.5295 85.6183 77.3842 85.767 77.2774 85.9423C77.1706 86.1176 77.1051 86.3149 77.0856 86.5192C76.5273 89.2062 77.4927 92.2654 76.0271 94.5918C74.4335 97.116 70.7462 97.465 68.8153 99.7449C67.7684 100.978 67.3612 102.641 66.3958 103.944C65.4303 105.247 63.3947 106.084 62.2315 104.944C62.8012 103.777 62.9572 102.45 62.674 101.182C62.3908 99.9138 61.6852 98.7796 60.6729 97.9652C59.6015 97.2619 58.4444 96.699 57.2298 96.2901C55.873 95.7175 54.5821 94.9999 53.3796 94.1499C52.7803 93.7848 52.2933 93.2616 51.9721 92.6377C51.718 91.8532 51.751 91.0039 52.0652 90.2415C52.6541 88.5615 53.6898 87.0739 55.0609 85.9385C56.432 84.803 58.0867 84.0628 59.847 83.7974C61.3824 83.588 63.1737 83.6578 64.1973 82.483C64.7324 81.8665 65.0116 80.9243 65.8025 80.68C66.3008 80.5759 66.8195 80.6372 67.2798 80.8544C69.1991 81.5291 71.1067 82.2038 73.026 82.8785C73.6659 83.172 74.3729 83.2885 75.0732 83.2158C75.4203 83.171 75.7373 82.9958 75.9599 82.7257C76.1824 82.4557 76.2938 82.111 76.2713 81.7618C76.0852 80.8079 74.6196 80.3543 74.7592 79.3889C74.827 79.0734 74.9941 78.7881 75.2361 78.5746C77.3107 76.368 79.8474 74.6471 82.6646 73.535C85.4818 72.423 88.51 71.9474 91.5325 72.1421C92.2537 73.3402 91.1138 74.7477 90.1483 75.7597C89.1945 76.7833 88.4267 78.5979 89.5899 79.3772C90.0592 79.6233 90.5842 79.7436 91.1137 79.7262C92.5282 79.916 93.9029 80.3323 95.185 80.9592C97.174 81.82 99.1282 82.7738 101.036 83.7974C100.755 82.5503 100.803 81.2516 101.175 80.0286C101.386 79.4283 101.812 78.9278 102.371 78.6246C102.93 78.3214 103.582 78.2373 104.2 78.3885C105.34 78.8305 105.921 80.3427 107.143 80.4823C108.76 80.6684 109.399 78.2722 108.725 76.7833C108.05 75.2944 106.701 74.0614 106.596 72.4213C106.515 71.3279 106.933 69.9669 106.061 69.3039C105.751 69.0984 105.396 68.9707 105.026 68.9317C97.7208 67.594 90.412 66.2525 83.0993 64.907C81.7966 64.6627 79.9238 64.8489 79.8656 66.1633C79.8307 66.9077 80.4938 67.6406 80.203 68.3152C79.8889 69.0364 78.8653 68.9782 78.1209 69.2341C77.5615 69.4879 77.1 69.9169 76.8062 70.4563C76.5124 70.9956 76.4023 71.616 76.4924 72.2236C76.6913 73.4331 77.1604 74.5821 77.865 75.5852C76.4342 74.992 74.2823 74.8873 72.8516 74.2824C72.6435 72.6258 72.2212 71.0031 71.5953 69.4551C71.5595 69.2088 71.4702 68.9733 71.3336 68.7652C71.197 68.557 71.0164 68.3813 70.8047 68.2505C70.5929 68.1197 70.355 68.0368 70.1078 68.0078C69.8605 67.9788 69.61 68.0043 69.3736 68.0826C67.4892 68.3734 65.6048 68.6525 63.7204 68.9433C63.2472 68.9658 62.7941 69.1413 62.4293 69.4435C61.6965 70.2228 62.4177 71.4675 62.3944 72.5376C62.3262 73.136 62.0735 73.6983 61.6712 74.1465C61.2689 74.5946 60.737 74.9064 60.1494 75.0385C58.9655 75.2789 57.744 75.263 56.5668 74.992C53.9263 74.5848 51.2975 74.1777 48.657 73.7706C50.9877 73.0279 53.0606 71.6406 54.6358 69.7692C55.6827 68.5362 56.2411 66.2331 54.7289 65.6515C54.2824 65.5288 53.8163 65.4933 53.3563 65.5468C49.7737 65.5701 46.9471 62.5806 43.5971 61.3128C42.5437 60.9198 41.4295 60.7151 40.3052 60.7079L36.5596 65.3024Z" fill="#3F3D56"/>
<path id="city_r" d="M341.76 179.691C341.35 180.242 340.811 180.684 340.19 180.978C339.57 181.272 338.887 181.409 338.201 181.378C334.56 181.064 333.024 175.818 329.419 175.225C329.1 175.143 328.762 175.176 328.465 175.318C327.93 175.609 327.837 176.33 327.802 176.935C327.651 179.936 327.523 183.053 328.697 185.822C330.407 189.869 334.839 193.266 333.909 197.558C328.907 195.243 326.301 189.625 325.126 184.24C323.94 178.854 323.754 173.201 321.637 168.106C320.02 170.165 316.647 168.467 315.181 166.303C313.785 164.256 312.924 161.883 311.575 159.801C310.226 157.73 308.155 155.869 305.689 155.753C303.095 155.637 300.839 157.416 298.861 159.103C297.141 160.373 295.697 161.98 294.616 163.825C293.231 166.617 293.592 169.897 293.522 173.003C293.452 176.353 292.743 179.901 290.451 182.367C288.16 184.821 283.937 185.682 281.413 183.46C280.193 182.188 279.323 180.621 278.889 178.912C276.145 170.915 273.861 162.767 272.05 154.508C271.631 156.393 269.967 158.824 268.385 157.719C268.032 157.418 267.746 157.045 267.548 156.625C264.593 151.635 259.138 148.634 253.613 146.831C248.099 145.04 242.295 144.202 236.839 142.225C233.78 141.114 230.857 139.658 228.127 137.886C227.434 138.908 227.029 140.097 226.955 141.33C226.881 142.562 227.142 143.792 227.708 144.889C228.321 145.962 229.272 146.802 230.412 147.28C231.552 147.757 232.818 147.845 234.013 147.529C235.223 147.133 236.246 146.296 237.444 145.877C238.642 145.47 240.259 145.668 240.783 146.831C241.295 147.936 240.527 149.274 240.911 150.437C241.481 152.193 244.144 152.333 245.075 153.938C245.348 154.574 245.411 155.28 245.254 155.954C245.097 156.628 244.729 157.234 244.203 157.684C243.132 158.557 241.951 159.284 240.69 159.847C236.781 162.022 234.001 165.733 230.581 168.618C227.162 171.514 222.334 173.62 218.263 171.77C219.229 166.85 213.378 163.244 212.296 158.347C211.935 156.73 212.121 155.02 211.621 153.45C210.888 151.17 208.865 149.611 207.213 147.89C205.206 145.776 203.642 143.283 202.614 140.556C201.585 137.829 201.112 134.924 201.222 132.012C201.315 129.988 201.688 127.929 201.222 125.952C200.769 123.986 199.129 122.078 197.105 122.16C192.487 122.369 186.659 122.718 184.24 118.775C183.367 117.367 182.995 115.308 184.251 114.227C184.742 113.915 185.29 113.705 185.863 113.607C186.436 113.509 187.023 113.526 187.59 113.657C191.068 113.994 194.534 114.343 198.012 114.68C200.443 114.913 203.072 115.111 205.166 113.843C207.259 112.575 208.167 109.19 206.224 107.689C204.817 106.596 202.281 106.654 201.862 104.921C201.525 103.467 203.13 101.827 202.258 100.605C201.641 99.7447 200.245 99.9774 199.396 100.629C198.655 101.398 197.85 102.102 196.988 102.734C195.325 103.595 193.347 102.769 191.556 102.211C189.765 101.652 187.369 101.606 186.508 103.269C185.531 105.119 187.357 107.561 186.403 109.423C185.124 111.877 180.82 110.481 179.028 112.598C176.981 115.018 180.424 118.647 179.738 121.741C178.854 122.179 177.872 122.381 176.887 122.325C175.903 122.27 174.949 121.961 174.12 121.427C173.306 120.873 172.657 120.109 172.244 119.216C171.83 118.323 171.666 117.334 171.77 116.355C171.933 114.959 172.666 113.529 172.177 112.214C171.65 111.199 170.781 110.404 169.723 109.969C166.35 108.096 162.976 106.231 159.603 104.374C158.661 106.119 159.847 108.271 161.336 109.585C162.813 110.888 164.675 111.877 165.652 113.598C166.27 114.791 166.41 116.176 166.043 117.469C165.675 118.761 164.828 119.865 163.674 120.554C163.528 120.655 163.362 120.722 163.187 120.752C163.013 120.783 162.833 120.775 162.662 120.729C162.501 120.634 162.36 120.508 162.248 120.358C162.137 120.209 162.056 120.038 162.011 119.856C160.231 115.285 157.544 110.783 153.264 108.399C148.971 106.003 142.818 106.503 140.003 110.516C139.34 111.47 138.886 112.563 138.305 113.575C135.222 118.937 128.592 121.473 122.404 121.31C121.799 121.349 121.195 121.207 120.671 120.903C119.67 120.217 119.717 118.751 119.868 117.542C120.089 115.832 120.298 114.133 120.519 112.424C120.525 111.379 120.928 110.377 121.648 109.62C122.799 108.713 124.451 109.283 125.917 109.26C127.023 109.21 128.087 108.821 128.963 108.144C129.84 107.468 130.486 106.537 130.814 105.479C131.109 104.412 131.106 103.284 130.807 102.218C130.508 101.152 129.923 100.188 129.115 99.4306C128.452 98.8024 127.557 98.0115 127.906 97.1623C128.048 96.9284 128.239 96.7282 128.466 96.5756C128.693 96.4229 128.95 96.3215 129.22 96.2783C131.837 95.5222 134.617 95.3245 137.188 94.4172C139.77 93.5215 142.271 91.6837 142.888 89.02C143.074 88.2057 143.155 87.2169 143.888 86.8099C144.258 86.6614 144.653 86.5825 145.051 86.5772C146.45 86.3768 147.723 85.6606 148.621 84.5694C149.518 83.4782 149.975 82.0908 149.902 80.6798C151.135 79.819 152.868 80.4588 154.066 81.3777C155.253 82.2966 156.311 83.5064 157.765 83.9019C160.475 84.6463 163.093 82.2385 165.908 82.2269C167.094 82.2269 168.315 82.6456 169.42 82.2385C170.549 81.8314 171.223 80.7147 172.084 79.8888C172.957 79.0513 174.469 78.5512 175.271 79.4468C175.039 77.7602 174.818 76.0852 174.585 74.4102C175.955 74.7553 177.384 74.8031 178.774 74.5503C180.165 74.2975 181.485 73.75 182.646 72.9445C179.715 71.9558 176.795 70.9671 173.864 69.9784C173.556 69.9025 173.272 69.7505 173.038 69.5364C172.398 68.8501 173.038 67.7799 173.55 67.0006C174.794 65.1278 175.004 62.0454 172.957 61.1148C171.561 60.475 169.967 61.2428 168.629 61.9872C166.489 63.1737 164.349 64.3718 162.209 65.5582C162.011 66.7796 163.5 67.4775 164.419 68.2917C164.979 68.7885 165.375 69.4431 165.556 70.1695C165.737 70.8958 165.693 71.6599 165.431 72.3611C165.169 73.0624 164.701 73.6679 164.089 74.098C163.476 74.5281 162.748 74.7626 161.999 74.7707C162.421 75.3211 162.714 75.9588 162.857 76.6371C163 77.3154 162.989 78.0171 162.825 78.6907C161.394 78.7954 159.952 78.9001 158.51 79.0048C158.27 79.0525 158.023 79.0525 157.784 79.0046C157.544 78.9567 157.317 78.8618 157.114 78.7256C156.649 78.3185 156.718 77.5973 156.602 76.9925C156.41 76.2695 156.006 75.6205 155.443 75.1291C154.879 74.6378 154.18 74.3266 153.438 74.2357C151.956 74.069 150.456 74.2075 149.029 74.6428C148.409 74.8613 147.731 74.8447 147.122 74.5963C146.777 74.3678 146.515 74.0329 146.377 73.6424C146.124 72.8448 146.081 71.9953 146.252 71.1762C146.424 70.357 146.803 69.5959 147.355 68.9664C148.472 67.7259 149.702 66.5927 151.03 65.5815C154.04 62.9464 156.252 59.5215 157.416 55.6943C159.789 54.6939 162.244 53.3446 164.628 52.3443C166.545 51.4558 168.554 50.781 170.619 50.3319C172.562 50.0352 174.53 49.9416 176.493 50.0528C179.168 50.0993 181.855 50.1458 184.53 50.204C186.919 50.1036 189.305 50.4467 191.568 51.216C193.766 52.1233 195.709 54.0891 195.86 56.462C195.906 56.7324 195.882 57.0101 195.79 57.2686C195.698 57.5271 195.542 57.7579 195.337 57.9392C195.028 58.11 194.677 58.1906 194.325 58.1719C192.103 58.2417 191.161 58.8 188.939 58.8814C190.346 60.382 191.928 61.9639 193.976 62.2314C197.582 62.6967 200.175 58.9628 201.839 55.7175C201.898 56.5436 202.278 57.3137 202.898 57.8635C203.517 58.4133 204.327 58.6993 205.154 58.6604C206.045 58.5072 206.896 58.1748 207.655 57.6833C214.809 53.7732 222.824 51.7027 230.977 51.658C230.897 51.0407 231.049 50.4157 231.404 49.9042C231.758 49.3927 232.29 49.0311 232.896 48.8895C234.56 48.5638 236.049 49.9945 236.851 51.4835C237.642 52.9723 238.142 54.6939 239.422 55.8106C240.69 56.9272 243.144 56.8691 243.644 55.2639C244.133 53.7168 242.516 52.3907 241.178 51.4719C239.829 50.5646 238.421 48.8779 239.329 47.5286C246.168 46.0048 253.066 44.4926 260.08 44.1902C261.272 44.2263 262.459 44.0206 263.57 43.5853C264.12 43.3525 264.577 42.9447 264.872 42.4252C265.166 41.9058 265.281 41.3036 265.198 40.7123C263.668 41.0695 262.066 40.9638 260.595 40.4088C259.125 39.8538 257.852 38.8743 256.94 37.5949C264.14 37.0016 271.677 36.4782 278.598 38.0951L284.659 43.2364C283.507 44.4345 281.972 45.5628 282.809 46.7609C283.085 47.0361 283.421 47.2449 283.789 47.3719C284.158 47.4988 284.551 47.5405 284.938 47.4937C286.403 47.517 287.869 47.5519 289.323 47.5519C319.41 76.3309 337.929 115.123 341.388 156.613C338.945 156.52 336.7 159.615 337.014 162.313C337.387 165.442 339.643 167.955 341.26 170.653C341.528 171.092 341.768 171.547 341.981 172.014L341.76 179.691Z" fill="#3F3D56"/>
</g>
</svg>
