<svg width="463" height="550" viewBox="0 0 463 550" fill="none" xmlns="http://www.w3.org/2000/svg">
<g id="undraw_Surveillance_re_8tkl 1">
<path id="eye" d="M242.5 480C341.083 480 421 406.575 421 316C421 225.425 341.083 152 242.5 152C143.917 152 64 225.425 64 316C64 406.575 143.917 480 242.5 480Z" fill="#3F3D56"/>
<path id="r_iris" d="M325 340C362.003 340 392 318.062 392 291C392 263.938 362.003 242 325 242C287.997 242 258 263.938 258 291C258 318.062 287.997 340 325 340Z" fill="white"/>
<path id="l_iris" d="M155 338C192.003 338 222 316.062 222 289C222 261.938 192.003 240 155 240C117.997 240 88 261.938 88 289C88 316.062 117.997 338 155 338Z" fill="white"/>
<path id="l_pupil" d="M156.278 316C166.628 316 178 305.825 178 293.273C178 280.721 166.628 266 156.278 266C145.928 266 132 277.312 132 289.864C132 302.416 145.928 316 156.278 316Z" fill="#3F3D56"/>
<path id="r_pupil" d="M326.278 316C336.628 316 348 305.825 348 293.273C348 280.721 336.628 266 326.278 266C315.928 266 302 277.312 302 289.864C302 302.416 315.928 316 326.278 316Z" fill="#3F3D56"/>
</g>
</svg>
